<mxfile host="app.diagrams.net" modified="2022-07-11T22:32:11.589Z" agent="5.0 (Windows NT 10.0; Win64; x64) AppleWebKit/537.36 (KHTML, like Gecko) Chrome/103.0.0.0 Safari/537.36" etag="aXQsD1nhMtFLVIRfgWWO" version="20.0.4" type="github" pages="3">
  <diagram id="0FJG1oKvQnxuFDeffio4" name="Diagrama de Flujo de Historia Clinica">
    <mxGraphModel dx="1422" dy="794" grid="1" gridSize="10" guides="1" tooltips="1" connect="1" arrows="1" fold="1" page="1" pageScale="1" pageWidth="827" pageHeight="1169" math="0" shadow="0">
      <root>
        <mxCell id="0" />
        <mxCell id="1" parent="0" />
        <mxCell id="RMnhrKZfnsFbdMeV7oKZ-1" value="Inicio" style="ellipse;whiteSpace=wrap;html=1;aspect=fixed;fillColor=#d5e8d4;strokeColor=#82b366;" parent="1" vertex="1">
          <mxGeometry x="40" y="50" width="60" height="60" as="geometry" />
        </mxCell>
        <mxCell id="RMnhrKZfnsFbdMeV7oKZ-2" value="Admisión" style="rounded=1;whiteSpace=wrap;html=1;fillColor=#fff2cc;strokeColor=#d6b656;" parent="1" vertex="1">
          <mxGeometry x="160" y="50" width="120" height="60" as="geometry" />
        </mxCell>
        <mxCell id="RMnhrKZfnsFbdMeV7oKZ-3" value="" style="endArrow=classic;html=1;rounded=0;entryX=0;entryY=0.5;entryDx=0;entryDy=0;" parent="1" source="RMnhrKZfnsFbdMeV7oKZ-1" target="RMnhrKZfnsFbdMeV7oKZ-2" edge="1">
          <mxGeometry width="50" height="50" relative="1" as="geometry">
            <mxPoint x="390" y="430" as="sourcePoint" />
            <mxPoint x="440" y="380" as="targetPoint" />
          </mxGeometry>
        </mxCell>
        <mxCell id="RMnhrKZfnsFbdMeV7oKZ-6" value="Toma de Signos Vitales" style="rounded=1;whiteSpace=wrap;html=1;fillColor=#fff2cc;strokeColor=#d6b656;" parent="1" vertex="1">
          <mxGeometry x="330" y="50" width="120" height="60" as="geometry" />
        </mxCell>
        <mxCell id="RMnhrKZfnsFbdMeV7oKZ-7" value="" style="endArrow=classic;html=1;rounded=0;exitX=1;exitY=0.5;exitDx=0;exitDy=0;" parent="1" source="RMnhrKZfnsFbdMeV7oKZ-2" target="RMnhrKZfnsFbdMeV7oKZ-6" edge="1">
          <mxGeometry width="50" height="50" relative="1" as="geometry">
            <mxPoint x="390" y="420" as="sourcePoint" />
            <mxPoint x="440" y="370" as="targetPoint" />
          </mxGeometry>
        </mxCell>
        <mxCell id="RMnhrKZfnsFbdMeV7oKZ-8" value="Registro de consultas" style="rounded=1;whiteSpace=wrap;html=1;fillColor=#fff2cc;strokeColor=#d6b656;" parent="1" vertex="1">
          <mxGeometry x="510" y="50" width="120" height="60" as="geometry" />
        </mxCell>
        <mxCell id="RMnhrKZfnsFbdMeV7oKZ-9" value="" style="endArrow=classic;html=1;rounded=0;exitX=1;exitY=0.5;exitDx=0;exitDy=0;" parent="1" source="RMnhrKZfnsFbdMeV7oKZ-6" target="RMnhrKZfnsFbdMeV7oKZ-8" edge="1">
          <mxGeometry width="50" height="50" relative="1" as="geometry">
            <mxPoint x="390" y="420" as="sourcePoint" />
            <mxPoint x="440" y="370" as="targetPoint" />
          </mxGeometry>
        </mxCell>
        <mxCell id="RMnhrKZfnsFbdMeV7oKZ-10" value="¿El Paciente ya cuenta con Historia Clínica?" style="rhombus;whiteSpace=wrap;html=1;fillColor=#fff2cc;strokeColor=#d6b656;" parent="1" vertex="1">
          <mxGeometry x="510" y="170" width="120" height="120" as="geometry" />
        </mxCell>
        <mxCell id="RMnhrKZfnsFbdMeV7oKZ-11" value="" style="endArrow=classic;html=1;rounded=0;" parent="1" source="RMnhrKZfnsFbdMeV7oKZ-8" target="RMnhrKZfnsFbdMeV7oKZ-10" edge="1">
          <mxGeometry width="50" height="50" relative="1" as="geometry">
            <mxPoint x="390" y="400" as="sourcePoint" />
            <mxPoint x="440" y="350" as="targetPoint" />
          </mxGeometry>
        </mxCell>
        <mxCell id="RMnhrKZfnsFbdMeV7oKZ-12" value="Si" style="text;html=1;strokeColor=none;fillColor=none;align=center;verticalAlign=middle;whiteSpace=wrap;rounded=0;" parent="1" vertex="1">
          <mxGeometry x="460" y="200" width="60" height="30" as="geometry" />
        </mxCell>
        <mxCell id="RMnhrKZfnsFbdMeV7oKZ-13" value="No" style="text;html=1;strokeColor=none;fillColor=none;align=center;verticalAlign=middle;whiteSpace=wrap;rounded=0;" parent="1" vertex="1">
          <mxGeometry x="620" y="203" width="60" height="30" as="geometry" />
        </mxCell>
        <mxCell id="RMnhrKZfnsFbdMeV7oKZ-14" value="" style="endArrow=classic;html=1;rounded=0;exitX=0;exitY=0.5;exitDx=0;exitDy=0;entryX=1;entryY=0.5;entryDx=0;entryDy=0;" parent="1" source="RMnhrKZfnsFbdMeV7oKZ-10" target="RMnhrKZfnsFbdMeV7oKZ-18" edge="1">
          <mxGeometry width="50" height="50" relative="1" as="geometry">
            <mxPoint x="390" y="400" as="sourcePoint" />
            <mxPoint x="490" y="230" as="targetPoint" />
          </mxGeometry>
        </mxCell>
        <mxCell id="RMnhrKZfnsFbdMeV7oKZ-16" value="Crear Historia Clinica" style="rounded=1;whiteSpace=wrap;html=1;fillColor=#fff2cc;strokeColor=#d6b656;" parent="1" vertex="1">
          <mxGeometry x="690" y="200" width="120" height="60" as="geometry" />
        </mxCell>
        <mxCell id="RMnhrKZfnsFbdMeV7oKZ-17" value="" style="endArrow=classic;html=1;rounded=0;exitX=1;exitY=0.5;exitDx=0;exitDy=0;" parent="1" source="RMnhrKZfnsFbdMeV7oKZ-10" target="RMnhrKZfnsFbdMeV7oKZ-16" edge="1">
          <mxGeometry width="50" height="50" relative="1" as="geometry">
            <mxPoint x="390" y="400" as="sourcePoint" />
            <mxPoint x="440" y="350" as="targetPoint" />
          </mxGeometry>
        </mxCell>
        <mxCell id="RMnhrKZfnsFbdMeV7oKZ-18" value="Consultar Historia Clinica" style="rounded=1;whiteSpace=wrap;html=1;fillColor=#fff2cc;strokeColor=#d6b656;" parent="1" vertex="1">
          <mxGeometry x="340" y="200" width="120" height="60" as="geometry" />
        </mxCell>
        <mxCell id="RMnhrKZfnsFbdMeV7oKZ-24" value="Alta del Paciente" style="rounded=1;whiteSpace=wrap;html=1;fillColor=#fff2cc;strokeColor=#d6b656;" parent="1" vertex="1">
          <mxGeometry x="166" y="530" width="120" height="60" as="geometry" />
        </mxCell>
        <mxCell id="RMnhrKZfnsFbdMeV7oKZ-25" value="" style="endArrow=classic;html=1;rounded=0;entryX=1;entryY=0.5;entryDx=0;entryDy=0;exitX=0;exitY=0.5;exitDx=0;exitDy=0;" parent="1" source="RMnhrKZfnsFbdMeV7oKZ-18" target="HL4wUpQa_9BszUXqO1d3-1" edge="1">
          <mxGeometry width="50" height="50" relative="1" as="geometry">
            <mxPoint x="328" y="230" as="sourcePoint" />
            <mxPoint x="264" y="243" as="targetPoint" />
          </mxGeometry>
        </mxCell>
        <mxCell id="RMnhrKZfnsFbdMeV7oKZ-26" value="Fin" style="ellipse;whiteSpace=wrap;html=1;aspect=fixed;fillColor=#f8cecc;strokeColor=#b85450;" parent="1" vertex="1">
          <mxGeometry x="196" y="650" width="60" height="60" as="geometry" />
        </mxCell>
        <mxCell id="RMnhrKZfnsFbdMeV7oKZ-27" value="" style="endArrow=classic;html=1;rounded=0;exitX=0.5;exitY=1;exitDx=0;exitDy=0;" parent="1" source="RMnhrKZfnsFbdMeV7oKZ-24" target="RMnhrKZfnsFbdMeV7oKZ-26" edge="1">
          <mxGeometry width="50" height="50" relative="1" as="geometry">
            <mxPoint x="176" y="670" as="sourcePoint" />
            <mxPoint x="226" y="620" as="targetPoint" />
          </mxGeometry>
        </mxCell>
        <mxCell id="HL4wUpQa_9BszUXqO1d3-1" value="¿Requiere actualizar Historia Clínica?" style="rhombus;whiteSpace=wrap;html=1;fillColor=#fff2cc;strokeColor=#d6b656;" parent="1" vertex="1">
          <mxGeometry x="144" y="165" width="140" height="130" as="geometry" />
        </mxCell>
        <mxCell id="HL4wUpQa_9BszUXqO1d3-2" value="Actualizar Historia Clinica" style="rounded=1;whiteSpace=wrap;html=1;fillColor=#fff2cc;strokeColor=#d6b656;" parent="1" vertex="1">
          <mxGeometry x="72" y="330" width="120" height="60" as="geometry" />
        </mxCell>
        <mxCell id="HL4wUpQa_9BszUXqO1d3-3" value="" style="endArrow=classic;html=1;rounded=0;entryX=0.45;entryY=-0.067;entryDx=0;entryDy=0;entryPerimeter=0;exitX=0;exitY=0.5;exitDx=0;exitDy=0;" parent="1" source="HL4wUpQa_9BszUXqO1d3-1" target="HL4wUpQa_9BszUXqO1d3-2" edge="1">
          <mxGeometry width="50" height="50" relative="1" as="geometry">
            <mxPoint x="72" y="280" as="sourcePoint" />
            <mxPoint x="122" y="230" as="targetPoint" />
            <Array as="points">
              <mxPoint x="126" y="230" />
            </Array>
          </mxGeometry>
        </mxCell>
        <mxCell id="HL4wUpQa_9BszUXqO1d3-4" value="Si" style="text;html=1;strokeColor=none;fillColor=none;align=center;verticalAlign=middle;whiteSpace=wrap;rounded=0;" parent="1" vertex="1">
          <mxGeometry x="80" y="260" width="58" height="30" as="geometry" />
        </mxCell>
        <mxCell id="HL4wUpQa_9BszUXqO1d3-6" value="No" style="text;html=1;strokeColor=none;fillColor=none;align=center;verticalAlign=middle;whiteSpace=wrap;rounded=0;" parent="1" vertex="1">
          <mxGeometry x="207" y="330" width="60" height="30" as="geometry" />
        </mxCell>
        <mxCell id="xekQoF_mFTuRHG7IAeSE-1" value="Finalizar gestión de consulta del Paciente" style="rounded=1;whiteSpace=wrap;html=1;fillColor=#fff2cc;strokeColor=#d6b656;" parent="1" vertex="1">
          <mxGeometry x="166" y="420" width="120" height="60" as="geometry" />
        </mxCell>
        <mxCell id="xekQoF_mFTuRHG7IAeSE-2" value="" style="endArrow=classic;html=1;rounded=0;exitX=0.5;exitY=1;exitDx=0;exitDy=0;entryX=0.5;entryY=0;entryDx=0;entryDy=0;" parent="1" source="xekQoF_mFTuRHG7IAeSE-1" target="RMnhrKZfnsFbdMeV7oKZ-24" edge="1">
          <mxGeometry width="50" height="50" relative="1" as="geometry">
            <mxPoint x="316" y="541" as="sourcePoint" />
            <mxPoint x="366" y="491" as="targetPoint" />
          </mxGeometry>
        </mxCell>
        <mxCell id="GkUgP4okJFauIwc1bpyG-1" value="" style="endArrow=classic;html=1;rounded=0;exitX=0.5;exitY=1;exitDx=0;exitDy=0;entryX=0.4;entryY=0;entryDx=0;entryDy=0;entryPerimeter=0;" parent="1" source="HL4wUpQa_9BszUXqO1d3-1" target="xekQoF_mFTuRHG7IAeSE-1" edge="1">
          <mxGeometry width="50" height="50" relative="1" as="geometry">
            <mxPoint x="390" y="510" as="sourcePoint" />
            <mxPoint x="440" y="460" as="targetPoint" />
            <Array as="points">
              <mxPoint x="214" y="350" />
            </Array>
          </mxGeometry>
        </mxCell>
        <mxCell id="GkUgP4okJFauIwc1bpyG-5" value="" style="endArrow=classic;html=1;rounded=0;exitX=0.5;exitY=1;exitDx=0;exitDy=0;entryX=0;entryY=0.5;entryDx=0;entryDy=0;" parent="1" source="HL4wUpQa_9BszUXqO1d3-2" target="xekQoF_mFTuRHG7IAeSE-1" edge="1">
          <mxGeometry width="50" height="50" relative="1" as="geometry">
            <mxPoint x="107" y="490" as="sourcePoint" />
            <mxPoint x="157" y="440" as="targetPoint" />
            <Array as="points">
              <mxPoint x="132" y="450" />
            </Array>
          </mxGeometry>
        </mxCell>
        <mxCell id="GkUgP4okJFauIwc1bpyG-6" value="" style="endArrow=classic;html=1;rounded=0;exitX=0.5;exitY=1;exitDx=0;exitDy=0;entryX=1;entryY=0.5;entryDx=0;entryDy=0;" parent="1" source="RMnhrKZfnsFbdMeV7oKZ-16" target="xekQoF_mFTuRHG7IAeSE-1" edge="1">
          <mxGeometry width="50" height="50" relative="1" as="geometry">
            <mxPoint x="390" y="510" as="sourcePoint" />
            <mxPoint x="440" y="460" as="targetPoint" />
            <Array as="points">
              <mxPoint x="750" y="450" />
            </Array>
          </mxGeometry>
        </mxCell>
      </root>
    </mxGraphModel>
  </diagram>
  <diagram name="Diagrama de Laboratorio" id="5OnZy8I1DerMemIDZ4Z2">
    <mxGraphModel dx="1422" dy="794" grid="1" gridSize="10" guides="1" tooltips="1" connect="1" arrows="1" fold="1" page="1" pageScale="1" pageWidth="827" pageHeight="1169" math="0" shadow="0">
      <root>
        <mxCell id="z8_920ZuaEv_8N6seaUg-0" />
        <mxCell id="z8_920ZuaEv_8N6seaUg-1" parent="z8_920ZuaEv_8N6seaUg-0" />
        <mxCell id="z8_920ZuaEv_8N6seaUg-2" value="Inicio" style="ellipse;whiteSpace=wrap;html=1;aspect=fixed;fillColor=#d5e8d4;strokeColor=#82b366;" parent="z8_920ZuaEv_8N6seaUg-1" vertex="1">
          <mxGeometry x="19" y="50" width="60" height="60" as="geometry" />
        </mxCell>
        <mxCell id="z8_920ZuaEv_8N6seaUg-3" value="Admisión" style="rounded=1;whiteSpace=wrap;html=1;fillColor=#fff2cc;strokeColor=#d6b656;" parent="z8_920ZuaEv_8N6seaUg-1" vertex="1">
          <mxGeometry x="139" y="50" width="120" height="60" as="geometry" />
        </mxCell>
        <mxCell id="z8_920ZuaEv_8N6seaUg-4" value="" style="endArrow=classic;html=1;rounded=0;entryX=0;entryY=0.5;entryDx=0;entryDy=0;" parent="z8_920ZuaEv_8N6seaUg-1" source="z8_920ZuaEv_8N6seaUg-2" target="z8_920ZuaEv_8N6seaUg-3" edge="1">
          <mxGeometry width="50" height="50" relative="1" as="geometry">
            <mxPoint x="369" y="430" as="sourcePoint" />
            <mxPoint x="419" y="380" as="targetPoint" />
          </mxGeometry>
        </mxCell>
        <mxCell id="z8_920ZuaEv_8N6seaUg-5" value="Toma de Signos Vitales" style="rounded=1;whiteSpace=wrap;html=1;fillColor=#fff2cc;strokeColor=#d6b656;" parent="z8_920ZuaEv_8N6seaUg-1" vertex="1">
          <mxGeometry x="309" y="50" width="120" height="60" as="geometry" />
        </mxCell>
        <mxCell id="z8_920ZuaEv_8N6seaUg-6" value="" style="endArrow=classic;html=1;rounded=0;exitX=1;exitY=0.5;exitDx=0;exitDy=0;" parent="z8_920ZuaEv_8N6seaUg-1" source="z8_920ZuaEv_8N6seaUg-3" target="z8_920ZuaEv_8N6seaUg-5" edge="1">
          <mxGeometry width="50" height="50" relative="1" as="geometry">
            <mxPoint x="369" y="420" as="sourcePoint" />
            <mxPoint x="419" y="370" as="targetPoint" />
          </mxGeometry>
        </mxCell>
        <mxCell id="z8_920ZuaEv_8N6seaUg-7" value="Registro de Consultas" style="rounded=1;whiteSpace=wrap;html=1;fillColor=#fff2cc;strokeColor=#d6b656;" parent="z8_920ZuaEv_8N6seaUg-1" vertex="1">
          <mxGeometry x="489" y="50" width="120" height="60" as="geometry" />
        </mxCell>
        <mxCell id="z8_920ZuaEv_8N6seaUg-8" value="" style="endArrow=classic;html=1;rounded=0;exitX=1;exitY=0.5;exitDx=0;exitDy=0;" parent="z8_920ZuaEv_8N6seaUg-1" source="z8_920ZuaEv_8N6seaUg-5" target="z8_920ZuaEv_8N6seaUg-7" edge="1">
          <mxGeometry width="50" height="50" relative="1" as="geometry">
            <mxPoint x="369" y="420" as="sourcePoint" />
            <mxPoint x="419" y="370" as="targetPoint" />
          </mxGeometry>
        </mxCell>
        <mxCell id="z8_920ZuaEv_8N6seaUg-15" value="Solicitud de Prueba Diagnostica (Laboratorio o Imagen)" style="rounded=1;whiteSpace=wrap;html=1;fillColor=#fff2cc;strokeColor=#d6b656;" parent="z8_920ZuaEv_8N6seaUg-1" vertex="1">
          <mxGeometry x="489" y="179" width="120" height="60" as="geometry" />
        </mxCell>
        <mxCell id="z8_920ZuaEv_8N6seaUg-17" value="Recepción solicitud" style="rounded=1;whiteSpace=wrap;html=1;fillColor=#fff2cc;strokeColor=#d6b656;" parent="z8_920ZuaEv_8N6seaUg-1" vertex="1">
          <mxGeometry x="489" y="288" width="120" height="60" as="geometry" />
        </mxCell>
        <mxCell id="z8_920ZuaEv_8N6seaUg-18" value="" style="endArrow=classic;html=1;rounded=0;" parent="z8_920ZuaEv_8N6seaUg-1" source="z8_920ZuaEv_8N6seaUg-15" target="z8_920ZuaEv_8N6seaUg-17" edge="1">
          <mxGeometry width="50" height="50" relative="1" as="geometry">
            <mxPoint x="189" y="370" as="sourcePoint" />
            <mxPoint x="239" y="320" as="targetPoint" />
          </mxGeometry>
        </mxCell>
        <mxCell id="z8_920ZuaEv_8N6seaUg-20" value="Realización de Extracción Muestras al Paciente" style="rounded=1;whiteSpace=wrap;html=1;fillColor=#fff2cc;strokeColor=#d6b656;" parent="z8_920ZuaEv_8N6seaUg-1" vertex="1">
          <mxGeometry x="269" y="459" width="120" height="60" as="geometry" />
        </mxCell>
        <mxCell id="z8_920ZuaEv_8N6seaUg-22" value="Entrega de Resultados" style="rounded=1;whiteSpace=wrap;html=1;fillColor=#fff2cc;strokeColor=#d6b656;" parent="z8_920ZuaEv_8N6seaUg-1" vertex="1">
          <mxGeometry x="479" y="650" width="120" height="60" as="geometry" />
        </mxCell>
        <mxCell id="z8_920ZuaEv_8N6seaUg-24" value="Fin" style="ellipse;whiteSpace=wrap;html=1;aspect=fixed;fillColor=#f8cecc;strokeColor=#b85450;" parent="z8_920ZuaEv_8N6seaUg-1" vertex="1">
          <mxGeometry x="159" y="1090" width="60" height="60" as="geometry" />
        </mxCell>
        <mxCell id="6TgBuLALcDRJESAb5uaZ-0" value="" style="endArrow=classic;html=1;rounded=0;exitX=0.5;exitY=1;exitDx=0;exitDy=0;" parent="z8_920ZuaEv_8N6seaUg-1" source="z8_920ZuaEv_8N6seaUg-7" target="z8_920ZuaEv_8N6seaUg-15" edge="1">
          <mxGeometry width="50" height="50" relative="1" as="geometry">
            <mxPoint x="369" y="410" as="sourcePoint" />
            <mxPoint x="419" y="360" as="targetPoint" />
          </mxGeometry>
        </mxCell>
        <mxCell id="6TgBuLALcDRJESAb5uaZ-1" value="Análisis de muestras y adjunto de Resultados" style="rounded=1;whiteSpace=wrap;html=1;fillColor=#fff2cc;strokeColor=#d6b656;" parent="z8_920ZuaEv_8N6seaUg-1" vertex="1">
          <mxGeometry x="259" y="574" width="120" height="60" as="geometry" />
        </mxCell>
        <mxCell id="6TgBuLALcDRJESAb5uaZ-2" value="" style="endArrow=classic;html=1;rounded=0;exitX=0.417;exitY=1.017;exitDx=0;exitDy=0;exitPerimeter=0;entryX=0.5;entryY=0;entryDx=0;entryDy=0;" parent="z8_920ZuaEv_8N6seaUg-1" source="z8_920ZuaEv_8N6seaUg-20" target="6TgBuLALcDRJESAb5uaZ-1" edge="1">
          <mxGeometry width="50" height="50" relative="1" as="geometry">
            <mxPoint x="319" y="533" as="sourcePoint" />
            <mxPoint x="319" y="574" as="targetPoint" />
          </mxGeometry>
        </mxCell>
        <mxCell id="6TgBuLALcDRJESAb5uaZ-3" value="Visualización de Pruebas Diagnosticas" style="rounded=1;whiteSpace=wrap;html=1;fillColor=#fff2cc;strokeColor=#d6b656;" parent="z8_920ZuaEv_8N6seaUg-1" vertex="1">
          <mxGeometry x="341" y="799" width="120" height="60" as="geometry" />
        </mxCell>
        <mxCell id="6TgBuLALcDRJESAb5uaZ-4" value="Esta actividad indica el retorno al modulo de Consultas donde el Doctor solicitante revisa las pruebas solicitadas al laboratorio o Imagen." style="text;html=1;strokeColor=none;fillColor=none;align=center;verticalAlign=middle;whiteSpace=wrap;rounded=0;" parent="z8_920ZuaEv_8N6seaUg-1" vertex="1">
          <mxGeometry x="309" y="904" width="180" height="80" as="geometry" />
        </mxCell>
        <mxCell id="6TgBuLALcDRJESAb5uaZ-5" value="" style="endArrow=none;dashed=1;html=1;dashPattern=1 3;strokeWidth=2;rounded=0;entryX=0.45;entryY=1.017;entryDx=0;entryDy=0;entryPerimeter=0;" parent="z8_920ZuaEv_8N6seaUg-1" source="6TgBuLALcDRJESAb5uaZ-4" target="6TgBuLALcDRJESAb5uaZ-3" edge="1">
          <mxGeometry width="50" height="50" relative="1" as="geometry">
            <mxPoint x="369" y="629" as="sourcePoint" />
            <mxPoint x="369" y="869" as="targetPoint" />
          </mxGeometry>
        </mxCell>
        <mxCell id="6TgBuLALcDRJESAb5uaZ-7" value="¿El paciente requiere mas pruebas Diagnosticas?" style="rhombus;whiteSpace=wrap;html=1;fillColor=#fff2cc;strokeColor=#d6b656;" parent="z8_920ZuaEv_8N6seaUg-1" vertex="1">
          <mxGeometry x="109" y="749" width="160" height="170" as="geometry" />
        </mxCell>
        <mxCell id="6TgBuLALcDRJESAb5uaZ-8" value="Si" style="text;html=1;strokeColor=none;fillColor=none;align=center;verticalAlign=middle;whiteSpace=wrap;rounded=0;" parent="z8_920ZuaEv_8N6seaUg-1" vertex="1">
          <mxGeometry x="175" y="710" width="60" height="30" as="geometry" />
        </mxCell>
        <mxCell id="6TgBuLALcDRJESAb5uaZ-9" value="" style="endArrow=classic;html=1;rounded=0;exitX=0.5;exitY=0;exitDx=0;exitDy=0;entryX=-0.017;entryY=0.367;entryDx=0;entryDy=0;entryPerimeter=0;" parent="z8_920ZuaEv_8N6seaUg-1" source="6TgBuLALcDRJESAb5uaZ-7" target="z8_920ZuaEv_8N6seaUg-15" edge="1">
          <mxGeometry width="50" height="50" relative="1" as="geometry">
            <mxPoint x="189" y="420" as="sourcePoint" />
            <mxPoint x="479" y="200" as="targetPoint" />
            <Array as="points">
              <mxPoint x="189" y="200" />
              <mxPoint x="450" y="201" />
            </Array>
          </mxGeometry>
        </mxCell>
        <mxCell id="6TgBuLALcDRJESAb5uaZ-10" value="No" style="text;html=1;strokeColor=none;fillColor=none;align=center;verticalAlign=middle;whiteSpace=wrap;rounded=0;" parent="z8_920ZuaEv_8N6seaUg-1" vertex="1">
          <mxGeometry x="189" y="929" width="60" height="30" as="geometry" />
        </mxCell>
        <mxCell id="6TgBuLALcDRJESAb5uaZ-11" value="" style="endArrow=classic;html=1;rounded=0;exitX=0.008;exitY=0.633;exitDx=0;exitDy=0;exitPerimeter=0;" parent="z8_920ZuaEv_8N6seaUg-1" source="6TgBuLALcDRJESAb5uaZ-3" target="6TgBuLALcDRJESAb5uaZ-7" edge="1">
          <mxGeometry width="50" height="50" relative="1" as="geometry">
            <mxPoint x="369" y="809" as="sourcePoint" />
            <mxPoint x="419" y="759" as="targetPoint" />
          </mxGeometry>
        </mxCell>
        <mxCell id="6TgBuLALcDRJESAb5uaZ-12" value="Finalizar gestión de consulta del Paciente" style="rounded=1;whiteSpace=wrap;html=1;fillColor=#fff2cc;strokeColor=#d6b656;" parent="z8_920ZuaEv_8N6seaUg-1" vertex="1">
          <mxGeometry x="129" y="969" width="120" height="60" as="geometry" />
        </mxCell>
        <mxCell id="6TgBuLALcDRJESAb5uaZ-13" value="" style="endArrow=classic;html=1;rounded=0;exitX=0.5;exitY=1;exitDx=0;exitDy=0;entryX=0.5;entryY=0;entryDx=0;entryDy=0;" parent="z8_920ZuaEv_8N6seaUg-1" source="6TgBuLALcDRJESAb5uaZ-7" target="6TgBuLALcDRJESAb5uaZ-12" edge="1">
          <mxGeometry width="50" height="50" relative="1" as="geometry">
            <mxPoint x="229" y="929" as="sourcePoint" />
            <mxPoint x="279" y="879" as="targetPoint" />
          </mxGeometry>
        </mxCell>
        <mxCell id="8ZXgWFbtoIdKy-t35B4t-0" value="Tipo de Examen" style="rhombus;whiteSpace=wrap;html=1;fillColor=#fff2cc;strokeColor=#d6b656;" parent="z8_920ZuaEv_8N6seaUg-1" vertex="1">
          <mxGeometry x="469" y="404" width="160" height="170" as="geometry" />
        </mxCell>
        <mxCell id="8ZXgWFbtoIdKy-t35B4t-1" value="Realización de Prueba diagnostica ." style="rounded=1;whiteSpace=wrap;html=1;fillColor=#fff2cc;strokeColor=#d6b656;" parent="z8_920ZuaEv_8N6seaUg-1" vertex="1">
          <mxGeometry x="686" y="459" width="120" height="60" as="geometry" />
        </mxCell>
        <mxCell id="8ZXgWFbtoIdKy-t35B4t-2" value="" style="endArrow=classic;html=1;rounded=0;exitX=0;exitY=0.5;exitDx=0;exitDy=0;" parent="z8_920ZuaEv_8N6seaUg-1" source="8ZXgWFbtoIdKy-t35B4t-0" target="z8_920ZuaEv_8N6seaUg-20" edge="1">
          <mxGeometry width="50" height="50" relative="1" as="geometry">
            <mxPoint x="369" y="634" as="sourcePoint" />
            <mxPoint x="419" y="584" as="targetPoint" />
          </mxGeometry>
        </mxCell>
        <mxCell id="8ZXgWFbtoIdKy-t35B4t-3" value="" style="endArrow=classic;html=1;rounded=0;exitX=1;exitY=0.5;exitDx=0;exitDy=0;entryX=0;entryY=0.5;entryDx=0;entryDy=0;" parent="z8_920ZuaEv_8N6seaUg-1" source="8ZXgWFbtoIdKy-t35B4t-0" target="8ZXgWFbtoIdKy-t35B4t-1" edge="1">
          <mxGeometry width="50" height="50" relative="1" as="geometry">
            <mxPoint x="369" y="634" as="sourcePoint" />
            <mxPoint x="419" y="584" as="targetPoint" />
          </mxGeometry>
        </mxCell>
        <mxCell id="8ZXgWFbtoIdKy-t35B4t-4" value="" style="endArrow=classic;html=1;rounded=0;exitX=0.5;exitY=1;exitDx=0;exitDy=0;" parent="z8_920ZuaEv_8N6seaUg-1" source="z8_920ZuaEv_8N6seaUg-17" target="8ZXgWFbtoIdKy-t35B4t-0" edge="1">
          <mxGeometry width="50" height="50" relative="1" as="geometry">
            <mxPoint x="369" y="600" as="sourcePoint" />
            <mxPoint x="419" y="550" as="targetPoint" />
          </mxGeometry>
        </mxCell>
        <mxCell id="8ZXgWFbtoIdKy-t35B4t-5" value="Laboratorio" style="text;html=1;strokeColor=none;fillColor=none;align=center;verticalAlign=middle;whiteSpace=wrap;rounded=0;" parent="z8_920ZuaEv_8N6seaUg-1" vertex="1">
          <mxGeometry x="401" y="466" width="60" height="30" as="geometry" />
        </mxCell>
        <mxCell id="8ZXgWFbtoIdKy-t35B4t-6" value="Imagen" style="text;html=1;strokeColor=none;fillColor=none;align=center;verticalAlign=middle;whiteSpace=wrap;rounded=0;" parent="z8_920ZuaEv_8N6seaUg-1" vertex="1">
          <mxGeometry x="622" y="466" width="60" height="30" as="geometry" />
        </mxCell>
        <mxCell id="8ZXgWFbtoIdKy-t35B4t-7" value="" style="endArrow=classic;html=1;rounded=0;exitX=0.5;exitY=1;exitDx=0;exitDy=0;entryX=0.5;entryY=0;entryDx=0;entryDy=0;" parent="z8_920ZuaEv_8N6seaUg-1" target="8ZXgWFbtoIdKy-t35B4t-8" edge="1">
          <mxGeometry width="50" height="50" relative="1" as="geometry">
            <mxPoint x="748" y="519" as="sourcePoint" />
            <mxPoint x="745.25" y="585" as="targetPoint" />
          </mxGeometry>
        </mxCell>
        <mxCell id="8ZXgWFbtoIdKy-t35B4t-8" value="Análisis de muestras/ Análisis de la imagen y adjunto de Resultados" style="rounded=1;whiteSpace=wrap;html=1;fillColor=#fff2cc;strokeColor=#d6b656;" parent="z8_920ZuaEv_8N6seaUg-1" vertex="1">
          <mxGeometry x="689" y="574" width="120" height="60" as="geometry" />
        </mxCell>
        <mxCell id="8ZXgWFbtoIdKy-t35B4t-11" value="" style="endArrow=classic;html=1;rounded=0;exitX=0.575;exitY=1;exitDx=0;exitDy=0;exitPerimeter=0;entryX=0;entryY=0.5;entryDx=0;entryDy=0;" parent="z8_920ZuaEv_8N6seaUg-1" source="6TgBuLALcDRJESAb5uaZ-1" target="z8_920ZuaEv_8N6seaUg-22" edge="1">
          <mxGeometry width="50" height="50" relative="1" as="geometry">
            <mxPoint x="369" y="810" as="sourcePoint" />
            <mxPoint x="419" y="760" as="targetPoint" />
            <Array as="points">
              <mxPoint x="329" y="680" />
            </Array>
          </mxGeometry>
        </mxCell>
        <mxCell id="8ZXgWFbtoIdKy-t35B4t-12" value="" style="endArrow=classic;html=1;rounded=0;exitX=0.5;exitY=1;exitDx=0;exitDy=0;entryX=1;entryY=0.5;entryDx=0;entryDy=0;" parent="z8_920ZuaEv_8N6seaUg-1" source="8ZXgWFbtoIdKy-t35B4t-8" target="z8_920ZuaEv_8N6seaUg-22" edge="1">
          <mxGeometry width="50" height="50" relative="1" as="geometry">
            <mxPoint x="369" y="810" as="sourcePoint" />
            <mxPoint x="649" y="740" as="targetPoint" />
            <Array as="points">
              <mxPoint x="749" y="680" />
            </Array>
          </mxGeometry>
        </mxCell>
        <mxCell id="8ZXgWFbtoIdKy-t35B4t-13" value="" style="endArrow=classic;html=1;rounded=0;exitX=0.5;exitY=1;exitDx=0;exitDy=0;entryX=1;entryY=0.5;entryDx=0;entryDy=0;" parent="z8_920ZuaEv_8N6seaUg-1" source="z8_920ZuaEv_8N6seaUg-22" target="6TgBuLALcDRJESAb5uaZ-3" edge="1">
          <mxGeometry width="50" height="50" relative="1" as="geometry">
            <mxPoint x="369" y="810" as="sourcePoint" />
            <mxPoint x="419" y="760" as="targetPoint" />
            <Array as="points">
              <mxPoint x="539" y="829" />
            </Array>
          </mxGeometry>
        </mxCell>
        <mxCell id="8ZXgWFbtoIdKy-t35B4t-14" value="" style="endArrow=classic;html=1;rounded=0;exitX=0.5;exitY=1;exitDx=0;exitDy=0;entryX=0.5;entryY=0;entryDx=0;entryDy=0;" parent="z8_920ZuaEv_8N6seaUg-1" source="6TgBuLALcDRJESAb5uaZ-12" target="z8_920ZuaEv_8N6seaUg-24" edge="1">
          <mxGeometry width="50" height="50" relative="1" as="geometry">
            <mxPoint x="369" y="810" as="sourcePoint" />
            <mxPoint x="419" y="760" as="targetPoint" />
          </mxGeometry>
        </mxCell>
      </root>
    </mxGraphModel>
  </diagram>
  <diagram name="Diagrama de Solicitud Resumen Clinico" id="vJsOqkEl4zHwaD4wMcVJ">
    <mxGraphModel dx="1422" dy="794" grid="1" gridSize="10" guides="1" tooltips="1" connect="1" arrows="1" fold="1" page="1" pageScale="1" pageWidth="827" pageHeight="1169" math="0" shadow="0">
      <root>
        <mxCell id="hlDgstGDT7UcF94J40AT-0" />
        <mxCell id="hlDgstGDT7UcF94J40AT-1" parent="hlDgstGDT7UcF94J40AT-0" />
        <mxCell id="hlDgstGDT7UcF94J40AT-2" value="Inicio" style="ellipse;whiteSpace=wrap;html=1;aspect=fixed;fillColor=#d5e8d4;strokeColor=#82b366;" parent="hlDgstGDT7UcF94J40AT-1" vertex="1">
          <mxGeometry y="199" width="60" height="60" as="geometry" />
        </mxCell>
        <mxCell id="hlDgstGDT7UcF94J40AT-3" value="Solicitud de Resumen Clínico" style="rounded=1;whiteSpace=wrap;html=1;fillColor=#fff2cc;strokeColor=#d6b656;" parent="hlDgstGDT7UcF94J40AT-1" vertex="1">
          <mxGeometry x="120" y="199" width="120" height="60" as="geometry" />
        </mxCell>
        <mxCell id="hlDgstGDT7UcF94J40AT-4" value="" style="endArrow=classic;html=1;rounded=0;entryX=0;entryY=0.5;entryDx=0;entryDy=0;" parent="hlDgstGDT7UcF94J40AT-1" source="hlDgstGDT7UcF94J40AT-2" target="hlDgstGDT7UcF94J40AT-3" edge="1">
          <mxGeometry width="50" height="50" relative="1" as="geometry">
            <mxPoint x="350" y="579" as="sourcePoint" />
            <mxPoint x="400" y="529" as="targetPoint" />
          </mxGeometry>
        </mxCell>
        <mxCell id="hlDgstGDT7UcF94J40AT-5" value="Consulta de Historia Clínica" style="rounded=1;whiteSpace=wrap;html=1;fillColor=#fff2cc;strokeColor=#d6b656;" parent="hlDgstGDT7UcF94J40AT-1" vertex="1">
          <mxGeometry x="290" y="199" width="120" height="60" as="geometry" />
        </mxCell>
        <mxCell id="hlDgstGDT7UcF94J40AT-6" value="" style="endArrow=classic;html=1;rounded=0;exitX=1;exitY=0.5;exitDx=0;exitDy=0;" parent="hlDgstGDT7UcF94J40AT-1" source="hlDgstGDT7UcF94J40AT-3" target="hlDgstGDT7UcF94J40AT-5" edge="1">
          <mxGeometry width="50" height="50" relative="1" as="geometry">
            <mxPoint x="350" y="569" as="sourcePoint" />
            <mxPoint x="400" y="519" as="targetPoint" />
          </mxGeometry>
        </mxCell>
        <mxCell id="hlDgstGDT7UcF94J40AT-7" value="Entrega de Resumen Clínico al secretario/a" style="rounded=1;whiteSpace=wrap;html=1;fillColor=#fff2cc;strokeColor=#d6b656;" parent="hlDgstGDT7UcF94J40AT-1" vertex="1">
          <mxGeometry x="470" y="199" width="120" height="60" as="geometry" />
        </mxCell>
        <mxCell id="hlDgstGDT7UcF94J40AT-8" value="" style="endArrow=classic;html=1;rounded=0;exitX=1;exitY=0.5;exitDx=0;exitDy=0;" parent="hlDgstGDT7UcF94J40AT-1" source="hlDgstGDT7UcF94J40AT-5" target="hlDgstGDT7UcF94J40AT-7" edge="1">
          <mxGeometry width="50" height="50" relative="1" as="geometry">
            <mxPoint x="350" y="569" as="sourcePoint" />
            <mxPoint x="400" y="519" as="targetPoint" />
          </mxGeometry>
        </mxCell>
        <mxCell id="bEszRZ09aemgjHRM_qUU-0" value="En esta solicitud se ingresa un comprobante que permita justificar el porque se requiere este Resumen Clínico." style="text;html=1;strokeColor=none;fillColor=none;align=center;verticalAlign=middle;whiteSpace=wrap;rounded=0;" parent="hlDgstGDT7UcF94J40AT-1" vertex="1">
          <mxGeometry x="110" y="325" width="140" height="80" as="geometry" />
        </mxCell>
        <mxCell id="bEszRZ09aemgjHRM_qUU-1" value="" style="endArrow=none;dashed=1;html=1;dashPattern=1 3;strokeWidth=2;rounded=0;exitX=0.5;exitY=1;exitDx=0;exitDy=0;" parent="hlDgstGDT7UcF94J40AT-1" source="hlDgstGDT7UcF94J40AT-3" target="bEszRZ09aemgjHRM_qUU-0" edge="1">
          <mxGeometry width="50" height="50" relative="1" as="geometry">
            <mxPoint x="290" y="140" as="sourcePoint" />
            <mxPoint x="340" y="90" as="targetPoint" />
          </mxGeometry>
        </mxCell>
        <mxCell id="bEszRZ09aemgjHRM_qUU-2" value="Esta actividad representa la entrega del comprobante impreso y firmado por la dirección del puesto de salud, hospital primario u hospital general." style="text;html=1;strokeColor=none;fillColor=none;align=center;verticalAlign=middle;whiteSpace=wrap;rounded=0;" parent="hlDgstGDT7UcF94J40AT-1" vertex="1">
          <mxGeometry x="455" y="310" width="150" height="110" as="geometry" />
        </mxCell>
        <mxCell id="bEszRZ09aemgjHRM_qUU-3" value="" style="endArrow=none;dashed=1;html=1;dashPattern=1 3;strokeWidth=2;rounded=0;exitX=0.5;exitY=1;exitDx=0;exitDy=0;" parent="hlDgstGDT7UcF94J40AT-1" source="hlDgstGDT7UcF94J40AT-7" target="bEszRZ09aemgjHRM_qUU-2" edge="1">
          <mxGeometry width="50" height="50" relative="1" as="geometry">
            <mxPoint x="290" y="130" as="sourcePoint" />
            <mxPoint x="340" y="80" as="targetPoint" />
          </mxGeometry>
        </mxCell>
        <mxCell id="bEszRZ09aemgjHRM_qUU-4" value="Adjuntar comprobante de Resumen Clínico" style="rounded=1;whiteSpace=wrap;html=1;fillColor=#fff2cc;strokeColor=#d6b656;" parent="hlDgstGDT7UcF94J40AT-1" vertex="1">
          <mxGeometry x="667" y="199" width="120" height="60" as="geometry" />
        </mxCell>
        <mxCell id="bEszRZ09aemgjHRM_qUU-5" value="" style="endArrow=classic;html=1;rounded=0;exitX=1;exitY=0.5;exitDx=0;exitDy=0;" parent="hlDgstGDT7UcF94J40AT-1" source="hlDgstGDT7UcF94J40AT-7" target="bEszRZ09aemgjHRM_qUU-4" edge="1">
          <mxGeometry width="50" height="50" relative="1" as="geometry">
            <mxPoint x="620" y="250" as="sourcePoint" />
            <mxPoint x="560" y="519" as="targetPoint" />
          </mxGeometry>
        </mxCell>
        <mxCell id="bEszRZ09aemgjHRM_qUU-6" value="Esta actividad complementaria de la anterior, indica en subir comprobante de Resumen Clínico, para conservar esta información como parte de Historia Clínica del Paciente." style="text;html=1;strokeColor=none;fillColor=none;align=center;verticalAlign=middle;whiteSpace=wrap;rounded=0;" parent="hlDgstGDT7UcF94J40AT-1" vertex="1">
          <mxGeometry x="648.5" y="30" width="157" height="115" as="geometry" />
        </mxCell>
        <mxCell id="bEszRZ09aemgjHRM_qUU-7" value="" style="endArrow=none;dashed=1;html=1;dashPattern=1 3;strokeWidth=2;rounded=0;exitX=0.5;exitY=0;exitDx=0;exitDy=0;" parent="hlDgstGDT7UcF94J40AT-1" source="bEszRZ09aemgjHRM_qUU-4" target="bEszRZ09aemgjHRM_qUU-6" edge="1">
          <mxGeometry width="50" height="50" relative="1" as="geometry">
            <mxPoint x="727" y="190" as="sourcePoint" />
            <mxPoint x="500" y="80" as="targetPoint" />
          </mxGeometry>
        </mxCell>
        <mxCell id="tA8QjtumY9n4jwZHCtsi-0" value="Fin" style="ellipse;whiteSpace=wrap;html=1;aspect=fixed;fillColor=#f8cecc;strokeColor=#b85450;" parent="hlDgstGDT7UcF94J40AT-1" vertex="1">
          <mxGeometry x="697" y="320" width="60" height="60" as="geometry" />
        </mxCell>
        <mxCell id="tA8QjtumY9n4jwZHCtsi-1" value="" style="endArrow=classic;html=1;rounded=0;exitX=0.5;exitY=1;exitDx=0;exitDy=0;" parent="hlDgstGDT7UcF94J40AT-1" source="bEszRZ09aemgjHRM_qUU-4" target="tA8QjtumY9n4jwZHCtsi-0" edge="1">
          <mxGeometry width="50" height="50" relative="1" as="geometry">
            <mxPoint x="330" y="470" as="sourcePoint" />
            <mxPoint x="380" y="420" as="targetPoint" />
          </mxGeometry>
        </mxCell>
      </root>
    </mxGraphModel>
  </diagram>
</mxfile>
